<svg xmlns="http://www.w3.org/2000/svg" width="800" height="500" viewBox="0 0 800 500"><defs><radialGradient id="bg"><stop stop-color="#ff9b70" stop-opacity=".18"/><stop offset="1" stop-color="#080c15"/></radialGradient><pattern id="grid" width="40" height="40" patternUnits="userSpaceOnUse"><path d="M40 0H0V40" fill="none" stroke="#ffffff" stroke-opacity=".035"/></pattern><linearGradient id="glass" x2="1" y2="1"><stop stop-color="#ff9b70" stop-opacity=".15"/><stop offset="1" stop-color="#101425"/></linearGradient></defs><rect width="800" height="500" fill="#080c15"/><rect width="800" height="500" fill="url(#bg)"/><rect width="800" height="500" fill="url(#grid)"/><circle cx="400" cy="250" r="174" fill="none" stroke="#ff9b70" stroke-opacity=".08"/><path d="M286 211H519M286 285H519" stroke="#ff9b70" stroke-opacity=".45" stroke-dasharray="6 8"/><path d="M425 201l13 10-13 10M373 275l-13 10 13 10" fill="none" stroke="#ff9b70" stroke-width="2"/><rect x="129" y="150" width="167" height="197" rx="20" fill="url(#glass)" stroke="#ff9b70" stroke-opacity=".4"/><rect x="507" y="150" width="167" height="197" rx="20" fill="url(#glass)" stroke="#ff9b70" stroke-opacity=".4"/><g fill="none" stroke="#ffb493" stroke-width="3"><path d="M193 208l-16 17 16 17M232 208l16 17-16 17M222 198l-18 55"/><rect x="539" y="189" width="103" height="27" rx="6"/><rect x="539" y="229" width="103" height="27" rx="6"/></g><g fill="#ffbd9f" font-family="monospace" font-size="12" letter-spacing="3" text-anchor="middle"><text x="212" y="303">CLIENT</text><text x="590" y="303">SERVER</text></g><text x="40" y="460" font-family="monospace" font-size="10" letter-spacing="3" fill="#9aa9b9">BACKEND / CLEAR CONTRACTS</text><text x="718" y="460" font-family="sans-serif" font-size="23" font-weight="600" fill="#ff9b70">HK.</text></svg>